<svg width="61" height="53" viewBox="0 0 61 53" fill="none" xmlns="http://www.w3.org/2000/svg">
<path d="M48.8424 10.8214L42.5228 12.7866V23.7045C42.5203 24.1056 42.2689 24.484 41.8677 24.6236L34.1945 27.3125C34.0751 27.3658 33.9431 27.3938 33.8035 27.3938C33.2652 27.3938 32.8285 26.957 32.8285 26.4188V15.8032L26.5088 17.7684V47.3488L39.1535 43.4158C38.9935 42.6744 38.9098 41.9076 38.9098 41.118C38.9098 38.1092 40.131 35.3823 42.1039 33.4095C43.866 31.6474 46.2223 30.487 48.8422 30.2534L48.8424 10.8214ZM49.4137 48.074C47.4206 47.1599 45.9835 45.7939 45.1049 43.9811C44.2493 42.2164 43.942 40.0481 44.1832 37.4783C44.2264 36.9883 44.6301 36.615 45.1074 36.5948C45.7066 36.5668 46.3541 36.4272 47.0397 36.1733C47.7557 35.9067 48.5073 35.5207 49.2918 35.0155C49.627 34.7997 50.0434 34.8174 50.3557 35.0231C51.1352 35.5233 51.8842 35.9067 52.5977 36.1708L52.6409 36.1886C53.3112 36.4323 53.9434 36.5694 54.5299 36.5948C55.0352 36.6151 55.4339 37.0214 55.4592 37.5165C55.6928 40.0682 55.3831 42.2239 54.5325 43.9808C53.654 45.7937 52.2169 47.1571 50.2237 48.0737C49.9571 48.1956 49.6651 48.1854 49.4163 48.0737L49.4137 48.074ZM46.8569 43.1355C47.4714 44.4051 48.4616 45.3978 49.8174 46.1088C51.1733 45.3978 52.161 44.4051 52.778 43.1355C53.3924 41.8685 53.6565 40.3044 53.5727 38.4459C53.0471 38.3595 52.5139 38.2173 51.968 38.0193L51.9147 38.0015C51.2393 37.7502 50.5385 37.4099 49.8149 36.9808C49.0913 37.4099 48.3905 37.7501 47.7151 38.0015C47.1488 38.2097 46.5979 38.357 46.0596 38.4459C45.9758 40.3044 46.2399 41.8685 46.8543 43.1355H46.8569ZM39.7297 45.2683L25.8207 49.5949C25.6252 49.6558 25.4247 49.6507 25.2418 49.5949L0.958354 42.0441C0.541948 41.9146 0.275366 41.5286 0.275366 41.1148L0.272827 9.49822C0.272827 9.03865 0.592746 8.65274 1.02184 8.55117L25.2419 1.02038C25.4374 0.959444 25.638 0.964524 25.8209 1.02038L50.1043 8.56905C50.5207 8.69854 50.7873 9.08448 50.7873 9.49833L50.7898 30.2501C53.4127 30.4837 55.769 31.644 57.5282 33.4011C59.501 35.374 60.7223 38.1034 60.7223 41.1144C60.7223 44.1207 59.501 46.8474 57.5282 48.8229L57.5231 48.828C55.5477 50.8008 52.8233 52.0221 49.8173 52.0221C46.8115 52.0221 44.0844 50.8008 42.1089 48.828L42.1038 48.8229C41.0958 47.8149 40.2859 46.6088 39.7323 45.2708L39.7297 45.2683ZM56.1497 34.7795C54.5298 33.1596 52.2878 32.1566 49.815 32.1566C47.3394 32.1566 45.0999 33.1596 43.4802 34.7795C41.8604 36.3994 40.8573 38.6414 40.8573 41.1143C40.8573 43.5899 41.8603 45.8319 43.4776 47.4491C45.1001 49.0715 47.3395 50.0719 49.8151 50.0719C52.2907 50.0719 54.5327 49.069 56.1499 47.4516C57.7724 45.8292 58.7728 43.5897 58.7728 41.1141C58.7728 38.6411 57.7698 36.3991 56.1499 34.7793L56.1497 34.7795ZM4.79433 35.2289C4.28144 35.0689 3.9945 34.5231 4.15451 34.0102C4.31452 33.4972 4.86036 33.2103 5.37326 33.3703L8.94572 34.4824C9.45861 34.6424 9.74554 35.1883 9.58553 35.7012C9.42552 36.2141 8.87969 36.501 8.36678 36.341L4.79433 35.2289ZM4.79941 39.3143C4.28651 39.1568 3.99958 38.6135 4.15704 38.1006C4.31451 37.5878 4.85785 37.3008 5.3707 37.4582L12.5153 39.6799C13.0282 39.8374 13.3151 40.3807 13.1576 40.8936C13.0002 41.4064 12.4568 41.6934 11.944 41.536L4.79941 39.3143ZM40.5722 13.3901L34.7752 15.1928L34.7778 25.0441L40.572 23.0154L40.5722 13.3901ZM12.7949 6.92584L33.8057 13.4589L38.2744 12.07L17.2637 5.53696L12.7949 6.92584ZM20.5419 4.51629L41.5526 11.0493L46.5469 9.4954L25.5362 2.96236L20.5419 4.51375V4.51629ZM30.5302 14.477L9.51949 7.94396L4.53025 9.49535L25.541 16.0284L30.5327 14.477H30.5302ZM24.561 47.3405V17.76L2.22757 10.818V40.3958L24.561 47.3405Z" fill="black"/>
</svg>
