<svg width="60" height="53" viewBox="0 0 60 53" fill="none" xmlns="http://www.w3.org/2000/svg">
<path d="M54.375 49.2142H5.625C2.5125 49.2142 0 46.6778 0 43.5356V9.46422C0 6.32207 2.5125 3.78564 5.625 3.78564H54.375C57.4875 3.78564 60 6.32207 60 9.46422V43.5356C60 46.6778 57.4875 49.2142 54.375 49.2142ZM5.625 7.57136C4.575 7.57136 3.75 8.40422 3.75 9.46422V43.5356C3.75 44.5956 4.575 45.4285 5.625 45.4285H54.375C55.425 45.4285 56.25 44.5956 56.25 43.5356V9.46422C56.25 8.40422 55.425 7.57136 54.375 7.57136H5.625Z" fill="white"/>
<path d="M29.9998 33.9201C27.3748 33.9201 24.9748 32.8601 23.1748 30.9294L3.48733 9.80507C2.77483 9.04792 2.81233 7.83649 3.56233 7.11721C4.31233 6.39792 5.51233 6.43578 6.22483 7.19292L25.9123 28.3172C28.0498 30.6265 31.9498 30.6265 34.0873 28.3172L53.7748 7.23078C54.4873 6.47364 55.6873 6.43578 56.4373 7.15507C57.1873 7.87435 57.2248 9.08578 56.5123 9.84292L36.8248 30.9672C35.0248 32.8979 32.6248 33.9579 29.9998 33.9579V33.9201Z" fill="white"/>
</svg>
