<svg width="48" height="52" viewBox="0 0 48 52" fill="none" xmlns="http://www.w3.org/2000/svg">
<path fill-rule="evenodd" clip-rule="evenodd" d="M35.3111 47.5657C31.8911 47.4399 22.1987 46.1004 12.048 35.952C1.89962 25.8012 0.562497 16.1112 0.434247 12.6889C0.244247 7.47337 4.239 2.4075 8.85362 0.429121C9.40932 0.189168 10.0178 0.0978099 10.6195 0.164013C11.2212 0.230216 11.7953 0.451705 12.2855 0.806746C16.0855 3.576 18.7075 7.7655 20.959 11.0596C21.4544 11.7834 21.6662 12.664 21.5541 13.5339C21.4419 14.4037 21.0137 15.2019 20.351 15.7764L15.7174 19.2177C15.4935 19.3794 15.3359 19.6168 15.2739 19.8859C15.2119 20.155 15.2496 20.4374 15.3801 20.6807C16.4299 22.5879 18.2966 25.4284 20.4341 27.5659C22.5716 29.7034 25.5475 31.6936 27.5876 32.8621C27.8434 33.0057 28.1445 33.0459 28.429 32.9743C28.7135 32.9027 28.9597 32.7249 29.1171 32.4774L32.1334 27.8865C32.6879 27.1499 33.5059 26.6564 34.4162 26.5094C35.3264 26.3624 36.2582 26.5734 37.0164 27.098C40.358 29.4112 44.2577 31.9881 47.1125 35.6432C47.4964 36.137 47.7405 36.7248 47.8195 37.3453C47.8985 37.9657 47.8093 38.5959 47.5614 39.1701C45.5735 43.8085 40.5432 47.7581 35.3111 47.5657Z" fill="white"/>
</svg>
