<svg width="16" height="16" viewBox="0 0 16 16" fill="none" xmlns="http://www.w3.org/2000/svg">
<path d="M2 8.5H14C14.1326 8.5 14.2598 8.44732 14.3536 8.35355C14.4473 8.25979 14.5 8.13261 14.5 8C14.5 7.86739 14.4473 7.74021 14.3536 7.64645C14.2598 7.55268 14.1326 7.5 14 7.5H2C1.86739 7.5 1.74021 7.55268 1.64645 7.64645C1.55268 7.74021 1.5 7.86739 1.5 8C1.5 8.13261 1.55268 8.25979 1.64645 8.35355C1.74021 8.44732 1.86739 8.5 2 8.5Z" fill="black"/>
<path d="M8.5 14L8.5 2C8.5 1.86739 8.44732 1.74021 8.35355 1.64645C8.25979 1.55268 8.13261 1.5 8 1.5C7.86739 1.5 7.74022 1.55268 7.64645 1.64645C7.55268 1.74021 7.5 1.86739 7.5 2L7.5 14C7.5 14.1326 7.55268 14.2598 7.64645 14.3536C7.74021 14.4473 7.86739 14.5 8 14.5C8.13261 14.5 8.25979 14.4473 8.35355 14.3536C8.44732 14.2598 8.5 14.1326 8.5 14Z" fill="black"/>
</svg>
