<svg width="40" height="40" viewBox="0 0 40 40" fill="none" xmlns="http://www.w3.org/2000/svg">
<path d="M19.9997 10C21.1762 9.99962 22.3219 10.3958 23.2685 11.1303C24.2152 11.8648 24.9129 12.899 25.2594 14.081C25.6059 15.2631 25.5828 16.5309 25.1936 17.6982C24.8044 18.8654 24.0695 19.8708 23.0968 20.5667C24.7851 21.2177 26.2494 22.3851 27.3013 23.9185C28.3532 25.4519 28.9444 27.2812 28.999 29.1709C29.0041 29.2758 28.9892 29.3807 28.9553 29.4795C28.9213 29.5783 28.8689 29.6689 28.8011 29.7461C28.7334 29.8233 28.6517 29.8855 28.5608 29.929C28.4699 29.9726 28.3716 29.9966 28.2717 29.9997C28.1719 30.0027 28.0724 29.9848 27.9793 29.947C27.8861 29.9091 27.801 29.8521 27.7291 29.7792C27.6572 29.7063 27.5998 29.619 27.5604 29.5225C27.5209 29.426 27.5002 29.3222 27.4995 29.2172C27.4399 27.1679 26.6237 25.2234 25.2238 23.796C23.8239 22.3685 21.9504 21.5702 20.0002 21.5702C18.05 21.5702 16.1765 22.3685 14.7766 23.796C13.3767 25.2234 12.5605 27.1679 12.5009 29.2172C12.4949 29.4264 12.4102 29.6245 12.2652 29.768C12.1203 29.9115 11.9271 29.9886 11.7281 29.9823C11.5291 29.9761 11.3407 29.8869 11.2042 29.7346C11.0677 29.5822 10.9944 29.3791 11.0003 29.1699C11.0551 27.2803 11.6465 25.4513 12.6983 23.9181C13.7502 22.3849 15.2144 21.2177 16.9025 20.5667C15.9299 19.8708 15.195 18.8654 14.8058 17.6982C14.4165 16.5309 14.3935 15.2631 14.7399 14.081C15.0864 12.899 15.7842 11.8648 16.7308 11.1303C17.6775 10.3958 18.8231 9.99962 19.9997 10ZM15.9982 15.7845C15.9982 16.9003 16.4198 17.9703 17.1702 18.7593C17.9206 19.5482 18.9384 19.9914 19.9997 19.9914C21.0609 19.9914 22.0787 19.5482 22.8292 18.7593C23.5796 17.9703 24.0012 16.9003 24.0012 15.7845C24.0012 14.6688 23.5796 13.5987 22.8292 12.8098C22.0787 12.0208 21.0609 11.5776 19.9997 11.5776C18.9384 11.5776 17.9206 12.0208 17.1702 12.8098C16.4198 13.5987 15.9982 14.6688 15.9982 15.7845Z" fill="black"/>
</svg>
