<svg width="40" height="40" viewBox="0 0 40 40" fill="none" xmlns="http://www.w3.org/2000/svg">
<path d="M12 15.657C12 14.839 12 14.431 12.152 14.063C12.304 13.696 12.594 13.406 13.172 12.828L13.828 12.172C14.406 11.594 14.696 11.304 15.063 11.152C15.43 11 15.84 11 16.657 11H23.343C24.161 11 24.569 11 24.937 11.152C25.304 11.304 25.593 11.594 26.172 12.172L26.828 12.828C27.407 13.406 27.695 13.696 27.848 14.063C28 14.431 28 14.839 28 15.657V25C28 26.886 28 27.828 27.414 28.414C26.828 29 25.886 29 24 29H16C14.114 29 13.172 29 12.586 28.414C12 27.828 12 26.886 12 25V15.657Z" stroke="black" stroke-width="2"/>
<path d="M12 15H28M17 19C17 19.7956 17.3161 20.5587 17.8787 21.1213C18.4413 21.6839 19.2044 22 20 22C20.7956 22 21.5587 21.6839 22.1213 21.1213C22.6839 20.5587 23 19.7956 23 19" stroke="black" stroke-width="2" stroke-linecap="round"/>
</svg>
